# xmcd
#
# Track frame offsets:
#	183
#	15693
#	19880
#	36708
#	44293
#	61998
#	78293
#	94328
#	108015
#	123760
#	141943
#	160030
#	173640
#	188163
#	202050
#	205955
#
# Disc length: 3036 seconds
#
# Revision: 4
# Processed by: cddbd v1.5.2PL0 Copyright (c) Steve Scherf et al.
# Submitted via: audiograbber 1.83.01
#
DISCID=d80bda10
DTITLE=Various Artist - The Legend Of Jesse James
DYEAR=1980
DGENRE=Country
TTITLE0=Rodney Crowell, Jody Payne, Levon Helm and Rosanne Cash - Ride Of The Red
TTITLE0=legs
TTITLE1=Levon Helm - Quantrill's Guerillas
TTITLE2=Johnny Cash - Six Gun Shooting
TTITLE3=Albert Lee - Have You Heard The News?
TTITLE4=Emmylou Harris - Heaven Ain't Ready For You Yet
TTITLE5=Johnny Cash - Help Him, Jesus
TTITLE6=Charlie Daniels and Levon Helm - The Old Clay County
TTITLE7=Charlie Daniels - Riding With Jesse James
TTITLE8=Albert Lee - Hunt Them Down
TTITLE9=Emmylou Harris - Wish We Were Back In Missouri
TTITLE10=Levon Helm - Northfield: The Plan
TTITLE11=Charlie Daniels - Northfield: The Disaster
TTITLE12=Levon Helm - High Walls
TTITLE13=Johnny Cash and Levon Helm - The Death Of Me
TTITLE14=Paul Kennerley - The Plot
TTITLE15=Levon Helm - One More Shot
EXTD=
EXTT0=
EXTT1=
EXTT2=
EXTT3=
EXTT4=
EXTT5=
EXTT6=
EXTT7=
EXTT8=
EXTT9=
EXTT10=
EXTT11=
EXTT12=
EXTT13=
EXTT14=
EXTT15=
PLAYORDER=
